<svg width="140" height="43" viewBox="0 0 140 43" fill="none" xmlns="http://www.w3.org/2000/svg">
<path d="M0 0C5.10716 0.152912 10.209 0.295279 15.3215 0.416554C15.3108 2.55733 15.3002 4.6981 15.3055 6.82305C12.4593 6.67014 9.61848 6.50668 6.77763 6.35377C6.77763 8.99546 6.77231 11.6372 6.77231 14.2841C9.38972 14.5478 12.0178 14.8009 14.6352 15.0698C14.6352 17.2422 14.6352 19.4146 14.6352 21.5923C12.0178 21.2337 9.39504 20.8699 6.77231 20.5113C6.77231 24.5345 6.77763 28.6157 6.77763 32.7338C4.51664 32.254 2.25566 31.7741 0 31.3154C0 20.8383 0 10.4033 0 0ZM31.2335 37.9908C30.7919 34.9431 30.3504 31.9112 29.9088 28.911C27.8713 28.5788 25.8337 28.2519 23.7962 27.9197C23.4025 30.6616 23.0088 33.4298 22.6151 36.2033C20.4818 35.7393 18.3485 35.27 16.2259 34.8113C18.2315 23.4325 20.2531 12.0168 22.2853 0.574739C25.3709 0.648559 28.4405 0.717106 31.4995 0.785653C33.521 13.161 35.5639 25.9845 37.6227 39.2563C35.4894 38.8345 33.3615 38.4179 31.2335 37.9908ZM24.7218 21.4183C26.1104 21.587 27.5095 21.7663 28.9033 21.9403C28.1798 17.1578 27.4563 12.4439 26.7381 7.77744C26.0625 12.3226 25.3922 16.8678 24.7218 21.4183ZM39.1974 9.78111C39.1602 6.88633 39.9316 4.68755 41.5116 3.14788C43.1129 1.55021 45.5335 0.785653 48.7946 0.833109C50.9652 0.859473 52.8431 1.14421 54.4232 1.67676C54.5189 4.24463 54.6094 6.81778 54.6892 9.41202C52.9868 8.72655 51.3163 8.36272 49.6884 8.32054C48.0871 8.26254 47.0603 8.47345 46.5975 8.94273C46.1347 9.36983 45.9112 10.0237 45.9325 10.9148C46.0283 17.2369 46.1027 23.6592 46.1666 30.1817C46.1772 32.08 47.2997 33.1872 49.5341 33.4667C51.8057 33.7356 53.6677 33.6196 55.1254 33.1345C55.1414 35.9344 55.1414 38.7765 55.1573 41.6449C53.5507 42.0825 51.5929 42.1089 49.3 41.7292C45.9591 41.1281 43.4641 39.7836 41.8255 37.743C40.2082 35.7551 39.3943 33.2189 39.3783 30.1554C39.3304 23.269 39.2666 16.4723 39.1974 9.78111ZM74.7454 1.26548C74.7188 3.71208 74.6922 6.17449 74.6762 8.658C72.7451 8.65273 70.8086 8.65273 68.8828 8.658C68.9094 19.7626 68.9147 31.1836 68.9094 42.9367C66.6271 42.8893 64.3662 42.8313 62.0999 42.7574C62.0626 31.0254 61.9935 19.6308 61.8658 8.58418C59.9453 8.55254 58.0514 8.52618 56.1575 8.484C56.0777 6.0374 55.9925 3.60135 55.9021 1.18112C62.1424 1.22857 68.4253 1.26021 74.7454 1.26548ZM83.5872 27.0338C83.5446 32.2118 83.4967 37.4635 83.4648 42.8102C81.2251 42.9156 78.9801 42.9789 76.7457 43C76.8255 28.5788 76.9479 14.669 77.1021 1.26021C80.6399 1.23912 84.1351 1.21803 87.5931 1.19166C90.0722 1.17584 91.9714 1.87713 93.2961 3.29025C94.6261 4.6981 95.2592 6.79669 95.1794 9.58602C95.1102 11.9852 95.0517 14.4001 94.9985 16.8362C94.9134 21.4552 93.6259 24.4765 91.1628 25.8527C92.7162 30.9727 94.2803 36.1031 95.8603 41.2231C93.3972 41.6027 90.934 41.956 88.4762 42.304C87.1356 37.1682 85.7896 32.0641 84.4437 26.9969C84.1564 27.0022 83.8744 27.0233 83.5872 27.0338ZM83.901 8.45763C83.8159 12.2224 83.7414 16.0189 83.6829 19.8628C84.566 19.8259 85.4545 19.789 86.3482 19.7521C87.0398 19.7362 87.5293 19.5095 87.8059 19.114C88.0825 18.7028 88.2315 18.0173 88.2528 17.0471C88.2953 14.8536 88.3432 12.6812 88.3964 10.5299C88.4177 9.69675 88.2847 9.12728 87.9815 8.83728C87.6942 8.53145 87.226 8.39436 86.5823 8.4049C85.6885 8.42072 84.7948 8.43654 83.901 8.45763ZM110.384 10.1766C110.426 8.4049 109.559 7.5718 107.788 7.64562C106.037 7.72998 105.133 8.66327 105.09 10.4771C104.941 16.6833 104.819 22.9948 104.718 29.4119C104.691 31.3365 105.553 32.1801 107.314 31.9059C109.102 31.6212 110.011 30.5245 110.033 28.6368C110.123 22.3937 110.245 16.2351 110.384 10.1766ZM98.3979 10.3559C98.4831 7.32925 99.3396 4.91956 100.973 3.13207C102.606 1.32348 104.952 0.411281 108.011 0.35328C111.049 0.290006 113.32 1.10202 114.826 2.75242C116.353 4.35536 117.092 6.54887 117.023 9.34874C116.901 15.4811 116.8 21.6872 116.709 27.9724C116.683 30.9516 115.842 33.5405 114.225 35.7235C112.629 37.9064 110.293 39.3301 107.224 39.9154C104.154 40.4585 101.84 39.889 100.281 38.2334C98.7171 36.4986 97.9617 33.9887 97.9989 30.7354C98.1107 23.828 98.249 17.0313 98.3979 10.3559ZM133.552 0.253096C135.701 0.179277 137.851 0.105457 140 0.0210914C139.968 10.4455 139.941 20.9068 139.92 31.4156C137.782 31.9376 135.638 32.4649 133.499 33.0027C129.185 21.5765 126.727 14.5267 126.094 12.059C126.674 14.5689 126.929 18.9559 126.87 25.3202C126.849 28.4259 126.828 31.5579 126.806 34.7375C124.593 35.2964 122.396 35.8711 120.194 36.43C120.332 24.2181 120.518 12.2752 120.752 0.590558C122.902 0.53783 125.051 0.485101 127.2 0.4271C128.456 4.13391 129.732 7.77744 131.02 11.363C132.69 15.8607 133.824 19.23 134.398 21.5448C133.733 18.6184 133.419 14.2472 133.462 8.43127C133.483 5.72103 133.515 2.9897 133.552 0.253096Z" fill="#7D9BFF"/>
</svg>
